 
http://www.imdb.com/title/tt0346578/

The Dark Knight must contend with a mysterious female vigilante who emulates him, but to a more ruthless degree.

Screenshots: 
http://bayimg.com/PADHmaAEa 
http://bayimg.com/AaDiaAAEA 
http://bayimg.com/PadHNAaEA 
http://bayimg.com/padhLaAeA

Sample video file included in torrent.

General
Complete name			: Batman.Mystery.of.the.Batwoman.2003.DVDrip.H264.AAC.mp4 
Format				: MPEG-4 
Format profile			: Base Media 
Codec ID			: isom 
File size			: 1.50 GiB 
Duration			: 1h 11mn 
Overall bit rate mode		: Variable 
Overall bit rate		: 2 994 Kbps 
Encoded date			: UTC 2012-09-25 04:33:33 

Video
Format				: AVC 
Format/Info			: Advanced Video Codec 
Format profile			: High@L4.1 
Format settings, CABAC		: Yes 
Format settings, ReFrames	: 4 frames 
Codec ID			: avc1 
Codec ID/Info			: Advanced Video Coding 
Duration			: 1h 11mn 
Bit rate			: 2 894 Kbps 
Maximum bit rate		: 13.4 Mbps 
Width				: 720 pixels 
Height				: 576 pixels 
Display aspect ratio		: 5:4 
Frame rate mode			: Constant 
Frame rate			: 25.000 fps 
Standard			: PAL 
Color space			: YUV 
Chroma subsampling		: 4:2:0 
Bit depth			: 8 bits 
Scan type			: Progressive 
Bits/(Pixel*Frame)		: 0.279 
Stream size			: 1.45 GiB (97%) 
Writing library			: x264 core 125 r2200 999b753 

Audio
Format				: AAC 
Format/Info			: Advanced Audio Codec 
Format profile			: LC 
Codec ID			: 40 
Duration			: 1h 11mn 
Bit rate mode			: Variable 
Bit rate			: 96.0 Kbps 
Maximum bit rate		: 129 Kbps 
Channel(s)			: 2 channels 
Channel positions		: Front: L R 
Sampling rate			: 48.0 KHz 
Compression mode		: Lossy 
Stream size			: 49.2 MiB (3%) 
Language			: English